<?xml version="1.0" standalone="no"?>
<!DOCTYPE svg PUBLIC "-//W3C//DTD SVG 20010904//EN"
 "http://www.w3.org/TR/2001/REC-SVG-20010904/DTD/svg10.dtd">
<svg version="1.0" xmlns="http://www.w3.org/2000/svg"
 width="132.000000pt" height="132.000000pt" viewBox="0 0 132.000000 132.000000"
 preserveAspectRatio="xMidYMid meet">
<metadata>
Created by potrace 1.11, written by Peter Selinger 2001-2013
</metadata>
<g transform="translate(0.000000,132.000000) scale(0.100000,-0.100000)"
fill="#000000" stroke="none">
<path d="M490 905 l0 -175 -127 -1 c-71 0 -139 -2 -153 -5 -123 -22 -199 -98
-208 -209 -10 -127 35 -212 137 -259 41 -19 68 -21 256 -24 l211 -4 0 426 0
426 -58 0 -58 0 0 -175z m0 -426 l0 -161 -132 4 c-149 4 -186 16 -213 69 -26
50 -27 121 -2 171 31 61 77 77 230 77 l117 1 0 -161z"/>
<path d="M719 1073 c-1 -4 -2 -196 -3 -426 l-2 -419 211 4 c205 3 211 4 266
30 38 19 66 42 90 75 31 44 34 55 36 128 3 109 -26 172 -100 220 -26 17 -27
19 -10 29 61 34 92 130 70 218 -11 46 -59 95 -117 122 -40 18 -68 21 -242 24
-109 2 -199 0 -199 -5z m397 -110 c81 -58 65 -186 -27 -219 -19 -7 -84 -13
-146 -13 l-113 -1 0 131 0 131 128 -3 c112 -4 131 -7 158 -26z m2 -343 c100
-45 106 -225 9 -277 -24 -13 -63 -18 -164 -21 l-133 -4 0 161 0 162 124 -2
c95 -1 133 -5 164 -19z"/>
</g>
</svg>
